<svg xmlns="http://www.w3.org/2000/svg" viewBox="0 0 800 500" role="img" aria-labelledby="title desc">
  <title id="title">AutoCAD course illustration</title>
  <desc id="desc">Professional educational illustration for AutoCAD in the Design &amp; Engineering category.</desc>
  <defs>
    <linearGradient id="bg" x1="0" y1="0" x2="1" y2="1">
      <stop offset="0" stop-color="#FFEDD5"/><stop offset="1" stop-color="#ffffff"/>
    </linearGradient>
    <filter id="shadow" x="-20%" y="-20%" width="140%" height="140%">
      <feDropShadow dx="0" dy="12" stdDeviation="14" flood-opacity=".12"/>
    </filter>
  </defs>
  <rect width="800" height="500" rx="32" fill="url(#bg)"/>
  <circle cx="700" cy="80" r="90" fill="#EA580C" opacity=".08"/>
  <circle cx="100" cy="430" r="120" fill="#EA580C" opacity=".06"/>
  <g filter="url(#shadow)">
    <rect x="72" y="62" width="656" height="376" rx="28" fill="#fff"/>
  </g>
  <rect x="72" y="62" width="656" height="9" rx="4.5" fill="#EA580C"/>
  <circle cx="128" cy="116" r="34" fill="#FFEDD5"/>
  <g transform="translate(104 92)" style="color:#EA580C"><path d="m6 18 6-13 6 13M8.5 13h7" fill="none" stroke="currentColor" stroke-width="1.8" stroke-linecap="round" stroke-linejoin="round"/><path d="M4 20h16" stroke="currentColor" stroke-width="1.6"/></g>
  <text x="182" y="111" font-family="Inter,Segoe UI,Arial,sans-serif" font-size="18" font-weight="700" fill="#EA580C">Design &amp; Engineering</text>
  <text x="110" y="205" font-family="Inter,Segoe UI,Arial,sans-serif" font-size="34" font-weight="800" fill="#0F172A">AutoCAD</text>
  <text x="110" y="247" font-family="Inter,Segoe UI,Arial,sans-serif" font-size="17" fill="#64748B">Professional skills • Practical learning • Career focused</text>
  <g transform="translate(110 292)" style="color:#EA580C">
    <circle cx="12" cy="12" r="11" fill="none" stroke="currentColor" stroke-width="2"/>
    <path d="m7 12 3 3 6-7" fill="none" stroke="currentColor" stroke-width="2" stroke-linecap="round" stroke-linejoin="round"/>
  </g>
  <text x="145" y="309" font-family="Inter,Segoe UI,Arial,sans-serif" font-size="16" font-weight="600" fill="#334155">2 Months  •  Beginner</text>
  <rect x="110" y="350" width="580" height="1" fill="#E2E8F0"/>
  <text x="110" y="390" font-family="Inter,Segoe UI,Arial,sans-serif" font-size="14" fill="#94A3B8">COURSE • SKILLS • CAREER</text>
</svg>
