<svg xmlns="http://www.w3.org/2000/svg" viewBox="0 0 800 500" role="img" aria-labelledby="title desc">
  <title id="title">Banking, Financial Services and Insurance course illustration</title>
  <desc id="desc">Professional educational illustration for Banking, Financial Services and Insurance in the Banking &amp; Finance category.</desc>
  <defs>
    <linearGradient id="bg" x1="0" y1="0" x2="1" y2="1">
      <stop offset="0" stop-color="#D1FAE5"/><stop offset="1" stop-color="#ffffff"/>
    </linearGradient>
    <filter id="shadow" x="-20%" y="-20%" width="140%" height="140%">
      <feDropShadow dx="0" dy="12" stdDeviation="14" flood-opacity=".12"/>
    </filter>
  </defs>
  <rect width="800" height="500" rx="32" fill="url(#bg)"/>
  <circle cx="700" cy="80" r="90" fill="#059669" opacity=".08"/>
  <circle cx="100" cy="430" r="120" fill="#059669" opacity=".06"/>
  <g filter="url(#shadow)">
    <rect x="72" y="62" width="656" height="376" rx="28" fill="#fff"/>
  </g>
  <rect x="72" y="62" width="656" height="9" rx="4.5" fill="#059669"/>
  <circle cx="128" cy="116" r="34" fill="#D1FAE5"/>
  <g transform="translate(104 92)" style="color:#059669"><path d="m4 9 8-5 8 5H4Z" fill="none" stroke="currentColor" stroke-width="1.8"/><path d="M6 10v7M10 10v7M14 10v7M18 10v7M4 19h16" stroke="currentColor" stroke-width="1.8" stroke-linecap="round"/></g>
  <text x="182" y="111" font-family="Inter,Segoe UI,Arial,sans-serif" font-size="18" font-weight="700" fill="#059669">Banking &amp; Finance</text>
  <text x="110" y="205" font-family="Inter,Segoe UI,Arial,sans-serif" font-size="34" font-weight="800" fill="#0F172A">Banking, Financial Services and Insurance</text>
  <text x="110" y="247" font-family="Inter,Segoe UI,Arial,sans-serif" font-size="17" fill="#64748B">Professional skills • Practical learning • Career focused</text>
  <g transform="translate(110 292)" style="color:#059669">
    <circle cx="12" cy="12" r="11" fill="none" stroke="currentColor" stroke-width="2"/>
    <path d="m7 12 3 3 6-7" fill="none" stroke="currentColor" stroke-width="2" stroke-linecap="round" stroke-linejoin="round"/>
  </g>
  <text x="145" y="309" font-family="Inter,Segoe UI,Arial,sans-serif" font-size="16" font-weight="600" fill="#334155">2 Months  •  Beginner</text>
  <rect x="110" y="350" width="580" height="1" fill="#E2E8F0"/>
  <text x="110" y="390" font-family="Inter,Segoe UI,Arial,sans-serif" font-size="14" fill="#94A3B8">COURSE • SKILLS • CAREER</text>
</svg>
